<svg width="20" height="20" viewBox="0 0 20 20" fill="none" xmlns="http://www.w3.org/2000/svg">
<path d="M9.75 0C7.82164 0 5.93657 0.571828 4.33319 1.64317C2.72982 2.71451 1.48013 4.23726 0.742179 6.01884C0.00422452 7.80042 -0.188858 9.76082 0.187348 11.6521C0.563554 13.5434 1.49215 15.2807 2.85571 16.6443C4.21928 18.0079 5.95656 18.9365 7.84787 19.3127C9.73919 19.6889 11.6996 19.4958 13.4812 18.7578C15.2627 18.0199 16.7855 16.7702 17.8568 15.1668C18.9282 13.5634 19.5 11.6784 19.5 9.75C19.4973 7.16498 18.4692 4.68661 16.6413 2.85872C14.8134 1.03084 12.335 0.00272983 9.75 0ZM9.75 18C8.11831 18 6.52326 17.5161 5.16655 16.6096C3.80984 15.7031 2.75242 14.4146 2.128 12.9071C1.50358 11.3996 1.3402 9.74085 1.65853 8.1405C1.97685 6.54016 2.76259 5.07015 3.91637 3.91637C5.07016 2.76259 6.54017 1.97685 8.14051 1.65852C9.74085 1.34019 11.3997 1.50357 12.9071 2.12799C14.4146 2.75242 15.7031 3.80984 16.6096 5.16655C17.5161 6.52325 18 8.1183 18 9.75C17.9975 11.9373 17.1275 14.0343 15.5809 15.5809C14.0343 17.1275 11.9373 17.9975 9.75 18ZM10.5 5.25H7.5C7.30109 5.25 7.11033 5.32902 6.96967 5.46967C6.82902 5.61032 6.75 5.80109 6.75 6V13.5C6.75 13.6989 6.82902 13.8897 6.96967 14.0303C7.11033 14.171 7.30109 14.25 7.5 14.25C7.69892 14.25 7.88968 14.171 8.03033 14.0303C8.17099 13.8897 8.25 13.6989 8.25 13.5V12H10.5C11.3951 12 12.2536 11.6444 12.8865 11.0115C13.5194 10.3785 13.875 9.52011 13.875 8.625C13.875 7.72989 13.5194 6.87145 12.8865 6.23851C12.2536 5.60558 11.3951 5.25 10.5 5.25ZM10.5 10.5H8.25V6.75H10.5C10.9973 6.75 11.4742 6.94754 11.8258 7.29917C12.1775 7.65081 12.375 8.12772 12.375 8.625C12.375 9.12228 12.1775 9.59919 11.8258 9.95082C11.4742 10.3025 10.9973 10.5 10.5 10.5Z" fill="#2351A3"/>
</svg>
