<svg width="14" height="12" viewBox="0 0 14 12" fill="none" xmlns="http://www.w3.org/2000/svg">
<path d="M12.8333 1.58333C12.8333 1.1231 12.4602 0.75 12 0.75H1.58333C1.1231 0.75 0.75 1.12309 0.75 1.58333V2.66305C0.75 3.04949 1.02363 3.37344 1.36691 3.55089C2.23793 4.00113 2.83333 4.91017 2.83333 5.95833C2.83333 7.0065 2.23793 7.9155 1.36691 8.36575C1.02363 8.54325 0.75 8.86717 0.75 9.25358V10.3333C0.75 10.7936 1.12309 11.1667 1.58333 11.1667H12C12.4602 11.1667 12.8333 10.7936 12.8333 10.3333V9.25358C12.8333 8.86717 12.5597 8.54325 12.2164 8.36575C11.3454 7.9155 10.75 7.0065 10.75 5.95833C10.75 4.91017 11.3454 4.00113 12.2164 3.55089C12.5597 3.37344 12.8333 3.04949 12.8333 2.66305V1.58333Z" stroke="#0A0C0F" stroke-width="1.5" stroke-linecap="round" stroke-linejoin="round"/>
</svg>
